<svg width="56" height="56" fill="none" xmlns="http://www.w3.org/2000/svg"><path d="M0 17.684h2.947v8.842H0v-8.842Zm29.474 32.421h2.947V56h-2.947v-5.895ZM18.667 29.474h2.947v5.894h-2.947v-5.894Zm16.701 20.631h2.948V56h-2.948v-5.895ZM2.948 14.737h5.894v2.947H2.947v-2.947Zm5.894 2.947h5.895v2.948H8.842v-2.948Zm0 23.58h5.895v2.947H8.842v-2.948ZM23.58 5.893h5.895v2.948H23.58V5.895Z" fill="#6B3407"/><path d="M14.737 41.263h5.895v2.948h-5.895v-2.948Zm29.474 0h5.894v2.948h-5.894v-2.948ZM32.42 23.58h5.895v2.947H32.42V23.58Z" fill="#8F4039"/><path d="M26.526 2.947h5.895v2.948h-5.895V2.947Z" fill="#FF4D1E"/><path d="M32.421 8.842h5.895v2.947H32.42V8.843Z" fill="#8F4039"/><path d="M23.579 47.158h14.737v2.947H23.579v-2.947Zm-1.965-11.79h11.79v2.948h-11.79v-2.948ZM20.632 0h11.79v2.947h-11.79V0Zm0 2.947h2.947v2.948h-2.947V2.947Zm11.79 0h2.946v2.948h-2.947V2.947Zm2.946 2.948h2.948v2.947h-2.948V5.895ZM2.948 26.526h2.947v2.948H2.947v-2.948Z" fill="#6B3407"/><path d="M2.947 23.579h2.948v2.947H2.947V23.58Zm2.948 2.947h2.947v2.948H5.895v-2.948Zm-2.948 5.895h2.948v2.947H2.947v-2.947Zm5.895 5.895h2.947v2.947H8.843v-2.947Zm9.825-2.948h2.947v2.948h-2.947v-2.948Zm14.736-2.947h2.948v2.947h-2.947v-2.947Z" fill="#9A4E0F"/><path d="M5.895 38.316h2.947v2.947H5.895v-2.947Zm15.719-8.842h2.947v2.947h-2.947v-2.947Z" fill="#6B3407"/><path d="M17.684 44.21h2.948v2.948h-2.948V44.21Zm5.895 0h2.947v2.948H23.58V44.21Zm20.632 0h2.947v2.948H44.21V44.21Zm5.894-5.894h2.948v2.947h-2.948v-2.947Zm-2.947-2.948h2.947v2.948h-2.947v-2.948Zm5.895-8.842H56v2.948h-2.947v-2.948Zm-2.948-2.947h2.948v2.947h-2.948V23.58ZM26.526 8.842h2.948v2.947h-2.948V8.843Z" fill="#8F4039"/><path d="M23.579 2.947h2.947v2.948H23.58V2.947Zm8.842 2.948h2.947v2.947h-2.947V5.895Z" fill="#C31E1E"/><path d="M29.474 5.895h2.947v2.947h-2.947V5.895Z" fill="#FF4D1E"/><path d="M23.579 11.79h2.947v2.947H23.58V11.79Z" fill="#8F4039"/><path d="M2.947 17.684h2.948v2.948H2.947v-2.948Z" fill="#FFE2AF"/><path d="M5.895 17.684h2.947v2.948H5.895v-2.948Zm-2.948 2.948h2.948v2.947H2.947v-2.947Zm8.843 0h2.947v2.947H11.79v-2.947Zm12.771 8.842h2.948v2.947H24.56v-2.947Zm8.843 0h2.947v2.947h-2.947v-2.947Zm0 5.894h2.947v2.948h-2.947v-2.948ZM8.841 26.526h2.947v5.895H8.843v-5.895Zm-5.895 2.948h2.948v2.947H2.947v-2.947Zm11.79 5.894h2.947v2.948h-2.947v-2.948Z" fill="#DEA159"/><path d="M14.737 38.316h2.947v2.947h-2.947v-2.947Zm5.895 2.947h2.947v2.948h-2.947v-2.948Zm23.579-8.842h2.947v2.947H44.21v-2.947Zm0-5.895h2.947v2.948H44.21v-2.948Zm-17.685 0h14.737v2.948H26.526v-2.948Zm0 11.79h5.895v2.947h-5.895v-2.947Zm5.895 2.947h8.842v2.948h-8.842v-2.948Zm2.947-2.947h8.843v2.947h-8.843v-2.947Zm2.948-2.948h8.842v2.948h-8.842v-2.948Zm0-11.79h8.842v2.948h-8.842V23.58Zm-2.948-8.841h8.843v2.947h-8.843v-2.947Zm-11.79 0h8.843v2.947H23.58v-2.947Zm0 8.842h8.843v2.947H23.58V23.58Zm5.896-5.895h11.79v5.895h-11.79v-5.895Zm6.877 14.737h4.912v2.947h-4.912v-2.947Zm0-2.947h13.754v2.947H36.351v-2.947ZM26.526 11.79h8.842v2.947h-8.842V11.79Z" fill="#FCD100"/><path d="M20.632 44.21h2.947v2.948h-2.947V44.21Z" fill="#DF8900"/><path d="M20.632 44.21h2.947v2.948h-2.947V44.21Zm20.631-2.947h2.948v2.948h-2.948v-2.948Zm2.948-2.947h2.947v2.947H44.21v-2.947Zm2.947-5.895h2.947v2.947h-2.947v-2.947Zm-5.895 0h2.948v2.947h-2.948v-2.947Zm2.948-14.737h2.947v2.948H44.21v-2.948Zm-8.843-5.895h2.948v2.948h-2.948V11.79Zm-14.736 2.948h2.947v2.947h-2.947v-2.947Zm-2.948 2.947h2.948v2.948h-2.948v-2.948Zm5.895 8.842h2.947v2.948H23.58v-2.948Zm8.842 11.79h2.947v2.947h-2.947v-2.947Zm14.737-14.737h2.947v5.895h-2.947v-5.895ZM18.667 38.316h7.86v2.947h-7.86v-2.947Zm4.912 2.947h8.842v2.948H23.58v-2.948Zm2.947 2.948h11.79v2.947h-11.79V44.21Zm-8.842-14.737h.983v11.79h-.983v-11.79Zm-2.947 2.947h2.947v2.947h-2.947v-2.947Zm0-8.842h2.947v2.947h-2.947V23.58Zm0 2.947h2.947v2.948h-2.947v-2.948Zm2.947 0h2.948v2.948h-2.948v-2.948Z" fill="#DF8900"/><path d="M41.263 44.21h2.948v2.948h-2.948V44.21Zm5.895-5.894h2.947v2.947h-2.947v-2.947Zm-32.421-8.842h2.947v2.947h-2.947v-2.947Zm5.895-5.895h2.947v5.895h-2.947v-5.895Zm0-11.79h2.947v2.948h-2.947V11.79Zm0 5.895h2.947v2.948h-2.947v-2.948Zm-2.948 2.948h2.948v5.894h-2.948v-5.894Zm32.421 5.894h2.948v2.948h-2.948v-2.948Zm-5.894-5.894h2.947v2.947H44.21v-2.947Zm-20.632-2.948h2.947v5.895H23.58v-5.895Z" fill="#FCD100"/><path d="M8.842 35.368h2.947v2.948H8.843v-2.948Zm-2.947-2.947h2.947v5.895H5.895V32.42Zm5.895-2.947h2.947v11.79H11.79v-11.79Z" fill="#DEA159"/><path d="M5.895 29.474h2.947v2.947H5.895v-2.947Zm2.947 2.947h2.947v2.947H8.843v-2.947Zm12.772 0h11.79v2.947h-11.79v-2.947Zm5.895-2.947h5.895v2.947h-5.895v-2.947ZM5.895 20.632h5.895v5.894H5.895v-5.894Zm5.895 2.947h2.947v5.895H11.79v-5.895Z" fill="#FFE2AF"/><path d="M20.632 8.842h2.947v2.947h-2.947V8.843Zm17.684 2.947h2.947v2.948h-2.947V11.79Z" fill="#8F4039"/><path d="M41.263 17.684h2.948v2.948h-2.948v-2.948Z" fill="#2F2000"/><path d="M41.263 20.632h2.948v2.947h-2.948v-2.947Z" fill="#F4F7AC"/><path d="M26.526 17.684h2.948v2.948h-2.948v-2.948Z" fill="#2F2000"/><path d="M26.526 20.632h2.948v2.947h-2.948v-2.947Z" fill="#F4F7AC"/><path d="M20.632 20.632h2.947v2.947h-2.947v-2.947Zm8.842-11.79h2.947v2.947h-2.947V8.843Zm2.947 5.895h2.947v2.947h-2.947v-2.947Zm8.842-2.947h2.948v2.947h-2.948V11.79Zm0 14.736h2.948v2.948h-2.948v-2.948Zm-4.912 8.842h1.965v2.948H36.35v-2.948Z" fill="#FFFF0C"/><path d="M41.263 8.842h2.948v2.947h-2.948V8.843Zm8.842 20.632h2.948v5.894h-2.948v-5.894Zm-2.947-11.79h2.947v5.895h-2.947v-5.895ZM44.21 11.79h2.947v5.895H44.21V11.79Zm-26.527 0h2.948v5.895h-2.948V11.79Zm-2.947 5.895h2.947v5.895h-2.947v-5.895Zm23.579 26.527h2.947v2.947h-2.947V44.21Zm2.947 2.947h2.948v2.947h-2.948v-2.947Z" fill="#8F4039"/><path d="M2.947 35.368h2.948v2.948H2.947v-2.948ZM0 29.474h2.947v5.894H0v-5.894Z" fill="#6B3407"/><path d="M14.832 16.702v1.52h2.25v1.522h1.522v1.521h1.52v1.522h1.521v1.52h7.163v-1.52h1.521v-1.522h1.521v-1.52h5.008v1.52h1.522v1.522h1.555v1.519h6.24v-1.519h1.87v-1.522h1.522v-1.52h1.52v-3.043H14.833Z" fill="#000"/><path d="M19.65 18.223v1.521h1.52v-1.521h-1.52Zm1.52 1.521v1.521h1.522v-1.52H21.17Zm1.522 0h1.52v-1.521h-1.521v1.521Zm1.52 0v1.521h1.521v-1.52h-1.52Zm13.692-1.521h1.521v1.521h1.52v-1.521h1.523v1.521h1.52v1.521h-1.52v-1.52h-1.522l-.001 1.52h-1.521l.001-1.52h-1.522l.001-1.522Z" fill="#436173"/><path d="M20.125 18.223v1.521h1.52v-1.521h-1.52Zm1.52 1.521v1.521h1.522v-1.52h-1.522Zm1.522 0h1.521v-1.521h-1.522l.001 1.521Zm1.521 0v1.521h1.52v-1.52h-1.52Zm13.692-1.521h1.52v1.521h1.521v-1.521h1.522v1.521h1.52v1.521h-1.52v-1.52h-1.522v1.52h-1.522l.001-1.52h-1.52v-1.522Z" fill="#667575"/></svg>